<svg width="384" height="24" viewBox="0 0 384 24" fill="none" xmlns="http://www.w3.org/2000/svg">
<path d="M7.79297 18.3047C4.54297 18.3047 2.41406 17.5312 1.40625 15.9844C0.835938 15.1094 0.550781 13.9531 0.550781 12.5156V0.691406H4.03125V12.668C4.03125 13.7539 4.33984 14.5117 4.95703 14.9414C5.58203 15.3633 6.53125 15.5742 7.80469 15.5742C9.07812 15.5742 9.99219 15.3633 10.5469 14.9414C11.1094 14.5195 11.3906 13.7617 11.3906 12.668V0.691406H14.8711V12.375C14.8711 14.6719 14.1914 16.2734 12.832 17.1797C11.6914 17.9297 10.0117 18.3047 7.79297 18.3047ZM26.6602 9.15234C26.6602 8.06641 25.9219 7.52344 24.4453 7.52344C23.8125 7.52344 23.2461 7.69141 22.7461 8.02734C22.2461 8.35547 21.9961 8.80859 21.9961 9.38672V18H18.8086V5.41406H21.9961V6.52734C23.0664 5.58984 24.3164 5.12109 25.7461 5.12109C27.1758 5.12109 28.2148 5.48828 28.8633 6.22266C29.5195 6.95703 29.8477 7.875 29.8477 8.97656V18H26.6602V9.15234ZM42.1641 14.5547C42.1641 15.5625 42.7109 16.0664 43.8047 16.0664C44.2344 16.0664 44.6875 15.9531 45.1641 15.7266C45.6406 15.5 46.0156 15.1797 46.2891 14.7656V11.625C45.9141 11.9297 45.2539 12.2578 44.3086 12.6094C43.3633 12.9531 42.7695 13.2734 42.5273 13.5703C42.2852 13.8594 42.1641 14.1875 42.1641 14.5547ZM46.5469 16.6055C46.1797 17.082 45.6523 17.4805 44.9648 17.8008C44.2852 18.1133 43.457 18.2695 42.4805 18.2695C41.5039 18.2695 40.6758 17.9531 39.9961 17.3203C39.3242 16.6875 38.9883 15.8789 38.9883 14.8945C38.9883 13.9102 39.293 13.1211 39.9023 12.5273C40.5195 11.9336 41.6953 11.3633 43.4297 10.8164C44.4844 10.4805 45.2227 10.1797 45.6445 9.91406C46.0742 9.64844 46.2891 9.28125 46.2891 8.8125C46.2891 7.84375 45.6289 7.36328 44.3086 7.37109C43.5664 7.37109 43.0547 7.51562 42.7734 7.80469C42.4922 8.08594 42.3516 8.49609 42.3516 9.03516V9.52734H39.3633V9.15234C39.3633 7.89453 39.7812 6.91406 40.6172 6.21094C41.4531 5.5 42.7383 5.14453 44.4727 5.14453C46.207 5.14453 47.4648 5.51172 48.2461 6.24609C49.0352 6.98047 49.4297 8.03516 49.4297 9.41016V14.3906C49.4297 14.9531 49.5 15.3242 49.6406 15.5039C49.7812 15.6836 50.0508 15.7734 50.4492 15.7734L50.3203 18.0938H49.6523C48.7852 18.0938 48.1094 17.9766 47.625 17.7422C47.1406 17.5 46.7812 17.1211 46.5469 16.6055ZM53.1211 23.6836L52.8867 21.0469C54.0039 20.8281 54.8164 20.3984 55.3242 19.7578C55.8398 19.125 56.2344 18.3984 56.5078 17.5781L51.7734 5.41406H54.8438L58.1133 13.8633L60.7266 5.41406H63.8906L60.0703 16.3594C59.4141 18.2422 58.8164 19.5938 58.2773 20.4141C57.7383 21.2422 57.2383 21.8438 56.7773 22.2188C55.793 23.0156 54.5742 23.5039 53.1211 23.6836ZM73.7812 16.6172C73.5312 17.1328 73.0469 17.5391 72.3281 17.8359C71.6094 18.125 70.8125 18.2695 69.9375 18.2695C68.6797 18.2695 67.6875 17.9219 66.9609 17.2266C66.2344 16.5312 65.8711 15.6523 65.8711 14.5898V5.41406H69.0586V14.0742C69.0586 14.6758 69.2695 15.125 69.6914 15.4219C70.1211 15.7188 70.6445 15.8672 71.2617 15.8672C71.8789 15.8672 72.4375 15.7031 72.9375 15.375C73.4375 15.0391 73.6875 14.5469 73.6875 13.8984V5.41406H76.875V18H73.875L73.7812 16.6172ZM80.9414 18V0.703125H88.4414C91.207 0.703125 93.0664 1.52344 94.0195 3.16406C94.5508 4.08594 94.8164 5.27734 94.8164 6.73828V12.0469C94.8164 14.9688 93.707 16.8086 91.4883 17.5664C90.6445 17.8555 89.6328 18 88.4531 18H80.9414ZM84.4219 15.293H88.1484C89.3359 15.293 90.1641 15.0742 90.6328 14.6367C91.1016 14.1992 91.3359 13.4844 91.3359 12.4922V6.28125C91.3359 5.30469 91.0938 4.58203 90.6094 4.11328C90.1328 3.64453 89.3125 3.41016 88.1484 3.41016H84.4219V15.293ZM102.797 12.3867H108.211L105.551 3.29297L102.797 12.3867ZM97.4648 18L103.16 0.703125H107.777L113.543 18H109.852L108.879 14.707H102.105L101.098 18H97.4648ZM116.59 18V0.703125H119.203L128.191 12.5625V0.703125H131.285V18H128.672L119.719 6.32812V18H116.59ZM138.773 18V3.35156H133.957V0.703125H147.059V3.35156H142.242V18H138.773ZM149.73 18V0.703125H161.062V3.32812H153.199V7.92188H160.172V10.4297H153.199V15.375H161.191V18H149.73ZM174.891 18.2695C172.906 18.2695 171.27 17.9414 169.98 17.2852L170.625 15.1172C172.094 15.7422 173.477 16.0547 174.773 16.0547C175.766 16.0547 176.328 15.6133 176.461 14.7305C176.477 14.6211 176.484 14.5195 176.484 14.4258C176.484 13.793 176.129 13.3633 175.418 13.1367L172.652 12.2695C171.707 11.9727 171.035 11.5273 170.637 10.9336C170.246 10.3398 170.051 9.61719 170.051 8.76562C170.051 8.73438 170.051 8.70312 170.051 8.67188C170.066 6.32031 171.676 5.14453 174.879 5.14453C176.457 5.14453 177.871 5.5 179.121 6.21094L178.371 8.19141C177.973 7.98047 177.43 7.79297 176.742 7.62891C176.062 7.45703 175.422 7.37109 174.82 7.37109C174.219 7.37109 173.781 7.48047 173.508 7.69922C173.234 7.91016 173.098 8.27734 173.098 8.80078C173.098 9.31641 173.387 9.66406 173.965 9.84375L176.566 10.6641C177.605 10.9922 178.336 11.4531 178.758 12.0469C179.188 12.6406 179.402 13.4688 179.402 14.5312C179.402 15.5938 179.012 16.4844 178.23 17.2031C177.449 17.9141 176.336 18.2695 174.891 18.2695ZM182.309 3.62109V0.796875H185.496V3.62109H182.309ZM182.309 18V5.41406H185.496V18H182.309ZM192.012 10.3711H196.535V8.89453C196.535 8.13672 196.23 7.67188 195.621 7.5C195.301 7.40625 194.812 7.36328 194.156 7.37109C193.508 7.37109 192.988 7.48047 192.598 7.69922C192.207 7.91797 192.012 8.33594 192.012 8.95312V10.3711ZM192.082 18.0586C191.457 17.9258 190.895 17.7031 190.395 17.3906C189.348 16.75 188.824 15.6406 188.824 14.0625V9.15234C188.824 7.88672 189.305 6.90234 190.266 6.19922C191.227 5.49609 192.535 5.14453 194.191 5.14453C197.762 5.14453 199.547 6.51953 199.547 9.26953V12.3164H192.012V14.3672C192.012 15.0625 192.184 15.5195 192.527 15.7383C192.871 15.9492 193.453 16.0547 194.273 16.0547C195.094 16.0547 195.578 16.0156 195.727 15.9375C196.078 15.7422 196.305 15.5078 196.406 15.2344C196.508 14.9531 196.566 14.5859 196.582 14.1328H199.535C199.488 16.0703 198.805 17.2969 197.484 17.8125C196.711 18.1094 195.773 18.2578 194.672 18.2578C193.57 18.2656 192.707 18.1992 192.082 18.0586ZM202.723 18V5.41406H205.91V6.53906C206.348 6.08594 206.914 5.74219 207.609 5.50781C208.312 5.26562 208.984 5.14453 209.625 5.14453C211.305 5.14453 212.457 5.66406 213.082 6.70312C214.121 5.66406 215.516 5.14453 217.266 5.14453C218.469 5.14453 219.434 5.47266 220.16 6.12891C220.895 6.77734 221.262 7.63281 221.262 8.69531V18H218.074V9.07031C218.074 8.46094 217.914 8.04688 217.594 7.82812C217.281 7.60156 216.824 7.48828 216.223 7.48828C215.629 7.48828 215.055 7.64453 214.5 7.95703C213.953 8.26953 213.656 8.6875 213.609 9.21094V18H210.422V9.07031C210.422 8.46094 210.254 8.04688 209.918 7.82812C209.582 7.60156 209.105 7.48828 208.488 7.48828C207.879 7.48828 207.297 7.65625 206.742 7.99219C206.188 8.32031 205.91 8.76953 205.91 9.33984V18H202.723ZM230.238 16.0547C231.738 16.0547 232.488 15.4531 232.488 14.25V9.15234C232.488 7.96484 231.773 7.37109 230.344 7.37109C229.867 7.37109 229.426 7.44922 229.02 7.60547C228.613 7.76172 228.309 7.94141 228.105 8.14453V15.5039C228.793 15.8711 229.504 16.0547 230.238 16.0547ZM224.918 22.8047V5.41406H227.145L227.461 6.23438C228.453 5.50781 229.645 5.14453 231.035 5.14453C232.434 5.14453 233.555 5.51562 234.398 6.25781C235.25 6.99219 235.676 7.97266 235.676 9.19922V14.1797C235.676 15.3047 235.246 16.2695 234.387 17.0742C233.527 17.8711 232.234 18.2695 230.508 18.2695C229.609 18.2695 228.809 18.1133 228.105 17.8008V22.8047H224.918ZM239.004 18V5.41406H242.191V6.91406C242.379 6.55469 242.77 6.23438 243.363 5.95312C244.387 5.46094 245.375 5.21484 246.328 5.21484C246.438 5.21484 246.539 5.21875 246.633 5.22656L246.562 7.93359C245.164 8.00391 244.004 8.26562 243.082 8.71875C242.566 8.96875 242.27 9.25 242.191 9.5625V18H239.004ZM251.52 10.3711H256.043V8.89453C256.043 8.13672 255.738 7.67188 255.129 7.5C254.809 7.40625 254.32 7.36328 253.664 7.37109C253.016 7.37109 252.496 7.48047 252.105 7.69922C251.715 7.91797 251.52 8.33594 251.52 8.95312V10.3711ZM251.59 18.0586C250.965 17.9258 250.402 17.7031 249.902 17.3906C248.855 16.75 248.332 15.6406 248.332 14.0625V9.15234C248.332 7.88672 248.812 6.90234 249.773 6.19922C250.734 5.49609 252.043 5.14453 253.699 5.14453C257.27 5.14453 259.055 6.51953 259.055 9.26953V12.3164H251.52V14.3672C251.52 15.0625 251.691 15.5195 252.035 15.7383C252.379 15.9492 252.961 16.0547 253.781 16.0547C254.602 16.0547 255.086 16.0156 255.234 15.9375C255.586 15.7422 255.812 15.5078 255.914 15.2344C256.016 14.9531 256.074 14.5859 256.09 14.1328H259.043C258.996 16.0703 258.312 17.2969 256.992 17.8125C256.219 18.1094 255.281 18.2578 254.18 18.2578C253.078 18.2656 252.215 18.1992 251.59 18.0586ZM273.246 18.2695C270.809 18.2695 269.234 17.7227 268.523 16.6289C268.078 15.957 267.855 15.1367 267.855 14.168V9.12891C267.855 7.87109 268.312 6.89453 269.227 6.19922C270.141 5.49609 271.441 5.14453 273.129 5.14453C274.816 5.14453 276.086 5.48047 276.938 6.15234C277.797 6.81641 278.227 8.03516 278.227 9.80859L275.227 10.043C275.227 8.91016 275.09 8.17969 274.816 7.85156C274.652 7.64844 274.449 7.51562 274.207 7.45312C273.973 7.39844 273.566 7.37109 272.988 7.37109C271.691 7.37109 271.043 7.96094 271.043 9.14062V14.2266C271.043 14.8828 271.211 15.3477 271.547 15.6211C271.891 15.8945 272.395 16.0312 273.059 16.0312C273.73 16.0312 274.203 15.9727 274.477 15.8555C274.75 15.7305 274.945 15.5 275.062 15.1641C275.18 14.8203 275.238 14.2812 275.238 13.5469H278.215C278.199 14.4688 278.113 15.2188 277.957 15.7969C277.801 16.3594 277.527 16.8359 277.137 17.2266C276.434 17.9141 275.137 18.2617 273.246 18.2695ZM284.027 10.3711H288.551V8.89453C288.551 8.13672 288.246 7.67188 287.637 7.5C287.316 7.40625 286.828 7.36328 286.172 7.37109C285.523 7.37109 285.004 7.48047 284.613 7.69922C284.223 7.91797 284.027 8.33594 284.027 8.95312V10.3711ZM284.098 18.0586C283.473 17.9258 282.91 17.7031 282.41 17.3906C281.363 16.75 280.84 15.6406 280.84 14.0625V9.15234C280.84 7.88672 281.32 6.90234 282.281 6.19922C283.242 5.49609 284.551 5.14453 286.207 5.14453C289.777 5.14453 291.562 6.51953 291.562 9.26953V12.3164H284.027V14.3672C284.027 15.0625 284.199 15.5195 284.543 15.7383C284.887 15.9492 285.469 16.0547 286.289 16.0547C287.109 16.0547 287.594 16.0156 287.742 15.9375C288.094 15.7422 288.32 15.5078 288.422 15.2344C288.523 14.9531 288.582 14.5859 288.598 14.1328H291.551C291.504 16.0703 290.82 17.2969 289.5 17.8125C288.727 18.1094 287.789 18.2578 286.688 18.2578C285.586 18.2656 284.723 18.1992 284.098 18.0586ZM294.738 18V5.41406H297.926V6.91406C298.113 6.55469 298.504 6.23438 299.098 5.95312C300.121 5.46094 301.109 5.21484 302.062 5.21484C302.172 5.21484 302.273 5.21875 302.367 5.22656L302.297 7.93359C300.898 8.00391 299.738 8.26562 298.816 8.71875C298.301 8.96875 298.004 9.25 297.926 9.5625V18H294.738ZM309.457 18.2695C307.02 18.2695 305.445 17.7227 304.734 16.6289C304.289 15.957 304.066 15.1367 304.066 14.168V9.12891C304.066 7.87109 304.523 6.89453 305.438 6.19922C306.352 5.49609 307.652 5.14453 309.34 5.14453C311.027 5.14453 312.297 5.48047 313.148 6.15234C314.008 6.81641 314.438 8.03516 314.438 9.80859L311.438 10.043C311.438 8.91016 311.301 8.17969 311.027 7.85156C310.863 7.64844 310.66 7.51562 310.418 7.45312C310.184 7.39844 309.777 7.37109 309.199 7.37109C307.902 7.37109 307.254 7.96094 307.254 9.14062V14.2266C307.254 14.8828 307.422 15.3477 307.758 15.6211C308.102 15.8945 308.605 16.0312 309.27 16.0312C309.941 16.0312 310.414 15.9727 310.688 15.8555C310.961 15.7305 311.156 15.5 311.273 15.1641C311.391 14.8203 311.449 14.2812 311.449 13.5469H314.426C314.41 14.4688 314.324 15.2188 314.168 15.7969C314.012 16.3594 313.738 16.8359 313.348 17.2266C312.645 17.9141 311.348 18.2617 309.457 18.2695ZM320.086 14.5547C320.086 15.5625 320.633 16.0664 321.727 16.0664C322.156 16.0664 322.609 15.9531 323.086 15.7266C323.562 15.5 323.938 15.1797 324.211 14.7656V11.625C323.836 11.9297 323.176 12.2578 322.23 12.6094C321.285 12.9531 320.691 13.2734 320.449 13.5703C320.207 13.8594 320.086 14.1875 320.086 14.5547ZM324.469 16.6055C324.102 17.082 323.574 17.4805 322.887 17.8008C322.207 18.1133 321.379 18.2695 320.402 18.2695C319.426 18.2695 318.598 17.9531 317.918 17.3203C317.246 16.6875 316.91 15.8789 316.91 14.8945C316.91 13.9102 317.215 13.1211 317.824 12.5273C318.441 11.9336 319.617 11.3633 321.352 10.8164C322.406 10.4805 323.145 10.1797 323.566 9.91406C323.996 9.64844 324.211 9.28125 324.211 8.8125C324.211 7.84375 323.551 7.36328 322.23 7.37109C321.488 7.37109 320.977 7.51562 320.695 7.80469C320.414 8.08594 320.273 8.49609 320.273 9.03516V9.52734H317.285V9.15234C317.285 7.89453 317.703 6.91406 318.539 6.21094C319.375 5.5 320.66 5.14453 322.395 5.14453C324.129 5.14453 325.387 5.51172 326.168 6.24609C326.957 6.98047 327.352 8.03516 327.352 9.41016V14.3906C327.352 14.9531 327.422 15.3242 327.562 15.5039C327.703 15.6836 327.973 15.7734 328.371 15.7734L328.242 18.0938H327.574C326.707 18.0938 326.031 17.9766 325.547 17.7422C325.062 17.5 324.703 17.1211 324.469 16.6055ZM340.043 14.25C340.043 14.875 340.227 15.3281 340.594 15.6094C340.961 15.8906 341.551 16.0312 342.363 16.0312C343.176 16.0312 343.863 15.8633 344.426 15.5273V7.80469C343.816 7.51562 343.129 7.37109 342.363 7.37109C341.598 7.37109 341.02 7.50781 340.629 7.78125C340.238 8.04688 340.043 8.48828 340.043 9.10547V14.25ZM341.859 18.2695C340.188 18.2695 338.934 17.918 338.098 17.2148C337.27 16.5039 336.855 15.5 336.855 14.2031V9.17578C336.855 7.94922 337.285 6.97266 338.145 6.24609C339.012 5.51172 340.324 5.14453 342.082 5.14453C342.832 5.14453 343.613 5.29297 344.426 5.58984V0.234375H347.613V18H345.457L345.117 17.2617C344.156 17.9336 343.07 18.2695 341.859 18.2695ZM354.082 10.3711H358.605V8.89453C358.605 8.13672 358.301 7.67188 357.691 7.5C357.371 7.40625 356.883 7.36328 356.227 7.37109C355.578 7.37109 355.059 7.48047 354.668 7.69922C354.277 7.91797 354.082 8.33594 354.082 8.95312V10.3711ZM354.152 18.0586C353.527 17.9258 352.965 17.7031 352.465 17.3906C351.418 16.75 350.895 15.6406 350.895 14.0625V9.15234C350.895 7.88672 351.375 6.90234 352.336 6.19922C353.297 5.49609 354.605 5.14453 356.262 5.14453C359.832 5.14453 361.617 6.51953 361.617 9.26953V12.3164H354.082V14.3672C354.082 15.0625 354.254 15.5195 354.598 15.7383C354.941 15.9492 355.523 16.0547 356.344 16.0547C357.164 16.0547 357.648 16.0156 357.797 15.9375C358.148 15.7422 358.375 15.5078 358.477 15.2344C358.578 14.9531 358.637 14.5859 358.652 14.1328H361.605C361.559 16.0703 360.875 17.2969 359.555 17.8125C358.781 18.1094 357.844 18.2578 356.742 18.2578C355.641 18.2656 354.777 18.1992 354.152 18.0586ZM376.746 18.1406C374.832 18.1406 373.461 17.8516 372.633 17.2734C371.805 16.6953 371.391 15.6055 371.391 14.0039V7.44141H369.715V5.41406H371.484L371.777 1.37109H374.578V5.41406H377.566V7.44141H374.578V13.7812C374.578 14.5625 374.762 15.0898 375.129 15.3633C375.504 15.6367 376.219 15.7734 377.273 15.7734H377.648L377.531 18.1406H376.746ZM380.449 3.62109V0.796875H383.637V3.62109H380.449ZM380.449 18V5.41406H383.637V18H380.449Z" fill="#EDECED"/>
</svg>
